<svg width="100" height="100" viewBox="0 0 100 100" fill="none" xmlns="http://www.w3.org/2000/svg">
  <g clip-path="url(#clip0_0_905)">
    <rect opacity="0.0229128" x="0.5" y="0.5" width="98.0099" height="99" stroke="currentColor" />
    <path fill-rule="evenodd" clip-rule="evenodd"
      d="M84.2153 53.447C83.1608 53.447 82.1079 53.5608 81.0787 53.7865C77.7866 46.0587 70.1073 40.9029 61.7975 40.9029C51.4277 40.9029 42.8054 48.3098 41.0883 58.5961C41.0647 58.5961 41.041 58.5961 41.0157 58.5961C34.2354 58.5961 28.7192 64.1899 28.7192 71.0672C28.7192 77.9411 34.2354 83.5332 41.0157 83.5332H84.2153C92.3932 83.5332 99.0468 76.7849 99.0468 68.4901C99.0468 60.1953 92.3932 53.447 84.2153 53.447ZM96.0639 68.4901C96.0639 75.1229 90.7489 80.5198 84.2153 80.5198H41.0157C35.8798 80.5198 31.7021 76.279 31.7021 71.0672C31.7021 65.8519 35.8798 61.6094 41.0157 61.6094C41.3587 61.6094 41.7339 61.6366 42.1953 61.6943L43.7112 61.8845L43.8633 60.3498C44.7979 50.982 52.5093 43.918 61.7975 43.918C69.3958 43.918 76.2166 48.809 78.7702 56.092L79.2518 57.4671L80.6258 57.024C81.7936 56.6505 83.0002 56.4621 84.2153 56.4621C90.7489 56.4621 96.0639 61.8573 96.0639 68.4901Z"
      fill="currentColor" />
    <path fill-rule="evenodd" clip-rule="evenodd"
      d="M23.3959 34.1937C23.9857 34.8592 25.0099 34.9203 25.6724 34.3295C26.3365 33.737 26.3974 32.7082 25.8076 32.0428L16.3317 21.3219C15.7436 20.6565 14.7195 20.5953 14.0553 21.1878C13.3928 21.7786 13.332 22.8074 13.9201 23.4746L23.3959 34.1937Z"
      fill="currentColor" />
    <path fill-rule="evenodd" clip-rule="evenodd"
      d="M22.2636 60.7063L11.816 70.4713C11.1671 71.0791 11.1299 72.1079 11.7332 72.7615C12.3383 73.4134 13.3641 73.4507 14.013 72.843L24.4606 63.0779C25.1096 62.4719 25.1467 61.4414 24.5434 60.7895C23.9384 60.1376 22.9126 60.1002 22.2636 60.7063Z"
      fill="currentColor" />
    <path fill-rule="evenodd" clip-rule="evenodd"
      d="M64.2177 23.4661C63.6127 22.8142 62.5869 22.7769 61.9379 23.3829L51.4904 33.1479C50.8414 33.7557 50.8042 34.7845 51.4092 35.4381C52.0126 36.09 53.0384 36.1274 53.6874 35.5196L64.1349 25.7546C64.7839 25.1485 64.8211 24.118 64.2177 23.4661Z"
      fill="currentColor" />
    <path fill-rule="evenodd" clip-rule="evenodd"
      d="M39.5252 29.7815C40.409 29.8511 41.1881 29.1805 41.2574 28.2926L42.3711 14.0016C42.4404 13.1137 41.7729 12.3294 40.889 12.2598C40.0051 12.1902 39.2243 12.8607 39.1551 13.7486L38.043 28.0396C37.9737 28.9292 38.6396 29.7118 39.5252 29.7815Z"
      fill="currentColor" />
    <path fill-rule="evenodd" clip-rule="evenodd"
      d="M19.8165 46.619C19.8976 45.7328 19.2419 44.94 18.3597 44.8568L4.15019 43.5292C3.26632 43.4477 2.47709 44.1047 2.39597 44.9926C2.31316 45.8805 2.96888 46.6733 3.85106 46.7548L18.0606 48.0824C18.9444 48.1655 19.7336 47.5069 19.8165 46.619Z"
      fill="currentColor" />
    <path fill-rule="evenodd" clip-rule="evenodd"
      d="M25.9291 47.1402C26.5155 40.577 32.3071 35.7165 38.8406 36.3056C42.1412 36.6044 45.0057 38.2376 46.9594 40.6262C47.6709 39.9233 48.4466 39.2545 49.2882 38.6399C46.8326 35.6588 43.2431 33.6216 39.1127 33.2498C30.9027 32.5096 23.6239 38.6178 22.8871 46.8651C22.4105 52.1958 24.79 57.1225 28.7429 60.1494C29.1891 59.3787 29.7907 58.5367 30.5901 57.7116C27.445 55.3026 25.5505 51.381 25.9291 47.1402Z"
      fill="currentColor" />
  </g>
  <defs>
    <clipPath id="clip0_0_905">
      <rect width="100" height="100" fill="currentColor" />
    </clipPath>
  </defs>
</svg>