<svg width="100" height="100" viewBox="0 0 100 100" fill="none" xmlns="http://www.w3.org/2000/svg">
  <g clip-path="url(#clip0_0_956)">
    <rect opacity="0.0229128" x="0.5" y="0.5" width="99" height="99" stroke="currentColor" />
    <path fill-rule="evenodd" clip-rule="evenodd"
      d="M77.765 58.4516L77.3238 55.3079L63.9015 57.2675L53.098 50.909L63.8998 44.5523L77.3238 46.5118L77.765 43.3698L68.2685 41.9812L82.9677 33.3304L81.4111 30.5803L66.7101 39.2328L70.2813 30.1529L67.3894 28.9721L62.3431 41.8021L51.7911 48.0119V35.4454L60.1671 24.5749L57.7181 22.612L51.7911 30.3049V13H48.6761V30.3049L42.7474 22.612L40.3001 24.5749L48.6761 35.4454V48.3059L37.6246 41.8021L32.5767 28.9721L29.6848 30.1546L33.2559 39.2328L18.5567 30.5803L17 33.3304L31.6993 41.9812L22.2011 43.3698L22.644 46.5118L36.0663 44.5523L46.8697 50.909L36.0646 57.2675L22.644 55.3079L22.2011 58.4516L31.6993 59.8385L17 68.4893L18.5567 71.2395L33.2576 62.587L29.6848 71.6668L32.5767 72.8476L37.6229 60.0176L48.6761 53.5139V66.3237L40.3001 77.1975L42.7491 79.1571L48.6761 71.4658V87.7572H51.7911V71.4658L57.7181 79.1571L60.1671 77.1975L51.7911 66.3254V53.8078L62.3431 60.0176L67.3894 72.8476L70.2813 71.6668L66.7101 62.587L81.4111 71.2395L82.9677 68.4893L68.2685 59.8385L77.765 58.4516Z"
      fill="currentColor" />
  </g>
  <defs>
    <clipPath id="clip0_0_956">
      <rect width="100" height="100" fill="currentColor" />
    </clipPath>
  </defs>
</svg>